:SAMPLES-PER-SECOND 30
:FULLY-SPECIFIED
:DEGREES
1342
root  43.6089 38.0612 1.27312 -30.7416 84.3493 -24.3427
RightUpLeg  -8.98464 -7.06041 4.98059
RightLeg  24.0812 1.80078 1.13047
RightFoot  -8.36274 0.0864953 -5.49201
RightToes  9.54606e-009 0 -3.6325e-017
Spine  9.31892 -0.693446 13.489
Spine1  7.0485 2.17646 -1.78742
HEad  -21.9867 -1.35814 -1.0219
LeftShoulder1  -0.465014 4.72922 -31.8505
LeftArm  21.9943 2.57045 -45.2363
LeftForeArm  20.1206 -26.1523 -4.68474
LeftHand  -0.0207509 7.83373 0.950924
RightShoulder  -0.86737 -6.00866 28.0679
RightArm  20.0449 19.2985 52.7213
RightForeArm  14.6915 12.5943 7.34147
RightHand  -0.0783989 4.26199 -1.21221
LeftUpLeg  -7.92371 1.90642 6.3335
LeftLeg  64.1057 -0.816764 -1.21732
LeftFoot  2.27293 0.58465 -5.00347
LeftToes  -8.26734e-010 9.74065e-011 1.64617e-011
1343
root  44.6509 38.2223 1.44414 -24.3616 84.0848 -17.8089
RightUpLeg  -6.46339 -7.7379 4.11455
RightLeg  23.1175 3.02706 1.80871
RightFoot  -9.65301 0.0163358 -5.5299
RightToes  9.54606e-009 0 -3.6325e-017
Spine  5.35881 0.645907 15.1967
Spine1  12.6103 3.91096 -3.55253
HEad  -21.3741 -2.85214 -1.18854
LeftShoulder1  -0.149197 3.89113 -32.2935
LeftArm  21.2693 1.92956 -45.3541
LeftForeArm  17.6255 -19.8705 -5.45473
LeftHand  0.00945325 8.26294 2.18027
RightShoulder  -0.829136 -6.01796 26.303
RightArm  21.734 24.8478 54.8638
RightForeArm  12.6558 14.99 6.46949
RightHand  -0.138724 5.32365 -1.82938
LeftUpLeg  -11.4754 2.31686 5.86278
LeftLeg  63.5376 -0.927339 -1.40632
LeftFoot  0.994899 0.407637 -3.83467
LeftToes  -8.26734e-010 9.74065e-011 1.64617e-011
1344
root  45.6601 38.3276 1.6462 -17.0936 83.5706 -10.4356
RightUpLeg  -4.23653 -8.0489 3.31072
RightLeg  22.4571 4.09775 2.18841
RightFoot  -10.9015 -0.0520135 -5.6475
RightToes  9.54606e-009 0 -3.6325e-017
Spine  5.63568 1.1266 15.1125
Spine1  11.5105 4.46715 -4.18532
HEad  -19.2498 -2.54269 -1.71245
LeftShoulder1  -0.268353 4.18428 -33.3047
LeftArm  9.45969 4.64949 -42.8717
LeftForeArm  26.4003 -14.3504 -8.40873
LeftHand  -0.0613658 8.74685 -0.481926
RightShoulder  -0.632884 -5.51242 24.8416
RightArm  23.7416 27.7865 56.4714
RightForeArm  10.693 17.7237 5.48737
RightHand  -0.122947 6.20763 -1.55881
LeftUpLeg  -14.4241 2.70148 5.25101
LeftLeg  60.6128 -1.57376 -2.46719
LeftFoot  -0.429943 0.363728 -3.7909
LeftToes  -8.26734e-010 9.74065e-011 1.64617e-011
1345
root  46.6545 38.3993 1.80488 -12.8376 82.9329 -6.03912
RightUpLeg  -1.95185 -8.5543 2.50816
RightLeg  21.7514 5.51053 2.74617
RightFoot  -12.1505 -0.12179 -5.68479
RightToes  9.54606e-009 0 -3.6325e-017
Spine  7.20003 1.267 16.0501
Spine1  8.94391 5.0431 -6.36444
HEad  -18.0301 -2.45358 -1.61131
LeftShoulder1  -0.467261 4.67131 -33.8386
LeftArm  0.485525 7.4372 -40.2889
LeftForeArm  32.2905 -9.20715 -9.61131
LeftHand  -0.0917567 9.97572 -0.91021
RightShoulder  -0.62201 -5.52698 23.9692
RightArm  25.9645 30.2626 57.6025
RightForeArm  7.20163 20.3882 4.86592
RightHand  -0.219886 6.18104 -2.54344
LeftUpLeg  -16.6361 3.10709 4.69921
LeftLeg  55.5504 -2.35442 -3.20512
LeftFoot  -1.56144 0.357916 -4.06811
LeftToes  -8.26734e-010 9.74065e-011 1.64617e-011
1346
root  47.6312 38.4783 1.976 -9.15075 82.2695 -2.22198
RightUpLeg  0.420262 -8.74931 1.77281
RightLeg  20.7023 6.57016 2.95363
RightFoot  -13.1375 -0.176177 -5.55169
RightToes  9.54606e-009 0 -3.6325e-017
Spine  9.96871 1.12621 15.6642
Spine1  4.35458 4.83958 -7.5215
HEad  -16.9662 -1.23062 -1.75877
LeftShoulder1  -0.741387 5.35159 -33.9624
LeftArm  -3.2003 11.8619 -37.8973
LeftForeArm  34.2798 -6.50443 -9.04996
LeftHand  -0.0994323 11.2955 -0.693811
RightShoulder  -0.485343 -5.13147 22.9935
RightArm  26.4232 31.1569 58.5838
RightForeArm  6.30162 23.0111 4.64934
RightHand  -0.296729 6.07463 -3.33025
LeftUpLeg  -17.8522 3.62227 4.09632
LeftLeg  48.2083 -3.14457 -3.37029
LeftFoot  -1.93203 0.338467 -3.96978
LeftToes  -8.26734e-010 9.74065e-011 1.64617e-011
1347
root  48.6189 38.5906 2.15863 -5.40692 81.9981 1.54114
RightUpLeg  3.15488 -8.79821 1.01707
RightLeg  18.6186 7.07513 2.77341
RightFoot  -13.7001 -0.206152 -5.54983
RightToes  9.54606e-009 0 -3.6325e-017
Spine  8.68429 1.61623 15.0346
Spine1  5.93127 5.18982 -8.2817
HEad  -17.8815 -0.651642 -1.5885
LeftShoulder1  -0.698193 5.26274 -33.56
LeftArm  -4.7375 13.7346 -37.1598
LeftForeArm  34.9947 -4.17915 -8.32363
LeftHand  -0.0803242 11.2246 -0.272282
RightShoulder  -0.446215 -5.00274 22.8658
RightArm  24.7437 33.4785 58.4409
RightForeArm  7.29127 25.2922 5.02811
RightHand  -0.340554 6.59816 -3.64048
LeftUpLeg  -18.0727 3.91763 3.27796
LeftLeg  38.5282 -3.63795 -2.74068
LeftFoot  -1.09484 0.451949 -4.96091
LeftToes  -8.26734e-010 9.74065e-011 1.64617e-011
